<?xml version="1.0" encoding="UTF-8" standalone="no"?>
<svg id="svg3336" xmlns:rdf="http://www.w3.org/1999/02/22-rdf-syntax-ns#" xmlns="http://www.w3.org/2000/svg" height="277.79" viewBox="0 0 940.67703 277.7865" width="940.68" version="1.1" xmlns:cc="http://creativecommons.org/ns#" xmlns:dc="http://purl.org/dc/elements/1.1/">
 <metadata id="metadata3342">
  <rdf:RDF>
   <cc:Work rdf:about="">
    <dc:format>image/svg+xml</dc:format>
    <dc:type rdf:resource="http://purl.org/dc/dcmitype/StillImage"/>
    <dc:title/>
   </cc:Work>
  </rdf:RDF>
 </metadata>
 <path id="path3359" d="m22.842 274.31c-0.35887-0.90264-1.2024-4.7593-1.8739-8.5705-0.67178-3.8111-1.8301-10.048-2.5748-13.859-0.74464-3.8111-2.0424-10.704-2.8838-15.317-0.84152-4.6135-1.8382-9.8652-2.215-11.67-0.838-4.01-2.123-10.63-5.0228-25.89-4.0735-21.43-5.8777-30.62-6.3181-32.19-0.23997-0.85741-0.10357-1.7647 0.30344-2.0164 0.86179-0.53247 248.9-0.62073 249.43-0.0883 0.35522 0.35522-0.32312 4.2572-4.2474 24.451-1.1304 5.817-3.2389 16.813-4.6855 24.435-6.4984 34.242-10.915 57.09-11.738 60.723l-0.37199 1.6412h-103.58-103.58l-0.65282-1.6412zm784.43-2.9866c-7.0596-2.3283-12.567-6.7199-15.374-12.26-2.6535-5.2364-2.4921-12.094 0.40334-17.142 2.4964-4.3524 6.9156-8.2201 12.077-10.569 3.0756-1.4 4.8907-1.6533 12.011-1.6756 7.6717-0.0219 8.7332 0.14296 12.427 1.9515 7.0355 3.4453 11.547 8.3592 13.406 14.601 0.47265 1.5876 2.1642 1.6078 14.649 0.17505 11.848-1.3595 19.117-2.8166 27.866-5.5861 3.7966-1.2018 5.1944-2.1557 8.6858-5.9268 7.8714-8.502 13.365-18.862 16.704-31.503 0.52806-1.9995 0.80491-3.8868 0.61489-4.1941-0.89013-1.4403-5.9116-0.48141-8.8688 1.6931-1.684 1.2384-4.8777 3.1305-7.0971 4.2046-3.8483 1.8625-4.1497 2.2163-6.5075 7.6399-3.3866 7.7902-7.9465 15.289-11.644 19.147-2.8482 2.9726-3.374 3.2245-6.6812 3.2008-4.2205-0.0292-6.4332-1.0972-8.37-4.035-2.4676-3.7434-1.8846-6.7183 2.6518-13.531 4.8864-7.3376 7.185-12.189 8.7764-18.525 1.457-5.8006 4.2627-8.6625 9.2209-9.4061 1.7989-0.26988 4.7904-1.4542 6.6478-2.6321l3.377-2.1416v-11.705-11.705l-2.0058-0.71116c-3.2117-1.1382-4.0948-1.797-5.8352-4.3527-1.4446-2.1214-1.6427-3.3361-1.6539-10.143-0.0146-10.309-1.8859-21.74-4.8719-29.798-1.0195-2.7512-1.4083-3.1-3.4551-3.1-2.3226 0-15.958 2.721-23.738 4.737-15.467 4.008-30.706 5.2011-38.031 2.9776-9.4228-2.8599-16.237-9.0977-21.211-19.417-1.7254-3.5793-3.3387-6.5133-3.585-6.5201-0.24658-0.007-1.033 1.5468-1.748 3.4524-4.0387 10.763-9.3198 18.075-15.086 20.886-2.129 1.0382-6.8068 2.3972-10.395 3.0201-3.5883 0.62291-6.9111 1.4536-7.384 1.846-1.3994 1.1614-2.6413 9.0996-3.156 20.173-0.41285 8.8761-0.69879 10.66-1.9908 12.4-2.8381 3.8226-7.9529 4.9775-12.21 2.7571-2.958-1.5427-3.1151-1.4587-4.0241 2.151-1.4307 5.6818-1.0297 9.8567 1.344 13.995 3.5976 6.2726 14.006 14.128 18.719 14.128 2.5426 0 6.5705 4.2997 7.533 8.0412 2.7176 10.565 8.0154 19.61 16.26 27.763 3.007 2.9736 5.8381 6.1235 6.2912 6.9998 1.2312 2.3806 0.99184 6.146-0.55143 8.6768-1.356 2.2238-5.3959 4.6828-7.6934 4.6828-6.4808 0-20.606-15.043-27.053-28.811-1.6906-3.6105-3.4253-7.4389-3.8548-8.5074-0.53904-1.3414-2.4311-2.8017-6.1133-4.7179-7.2624-3.7795-17.571-14.033-20.805-20.692-3.3691-6.9393-4.3461-13.228-3.2418-20.866 0.48944-3.3857 1.2543-7.0509 1.6994-8.1449 2.4415-5.9996 3.6661-8.2422 6.3663-11.658l2.9792-3.7691-0.79311-7.5042c-1.2285-11.624 0.12546-27.51 3.3799-39.648 4.6007-17.161 12.925-30.689 25.444-41.347 27.686-23.573 73.978-28.565 110.24-11.888 22.413 10.307 38.119 30.329 44.512 56.742 1.2037 4.973 3.2221 20.729 3.2221 25.151v3.1218h3.1525c6.348 0 13.891 3.7182 18.735 9.235 1.3308 1.5158 3.3972 4.8994 4.592 7.5192 2.062 4.5214 2.1902 5.3742 2.5252 16.798 0.54337 18.531-1.2682 26.018-8.0683 33.347-3.0485 3.2855-3.3284 3.9496-4.8225 11.442-3.4558 17.329-10.686 31.809-21.725 43.511-2.6151 2.772-5.7865 5.6632-7.0478 6.4249-7.5554 4.5623-27.639 8.8458-48.53 10.35l-9.7667 0.70315-2.9102 2.6292c-5.1077 4.6144-10.045 6.3903-18.403 6.6195-4.6054 0.12618-8.3694-0.15464-10.212-0.76216zm-467.67-23.15c-1.2907-0.37345-3.3069-1.9232-4.5588-3.5038-1.952-2.4646-2.2445-3.4145-2.2445-7.2878 0-2.4496 0.28082-4.4538 0.62364-4.4538s8.6308-7.4074 18.417-16.461c9.7866-9.0535 18.688-16.935 19.781-17.515 1.7079-0.90571 17.388-1.0521 111.47-1.0404 85.875 0.007 109.85 0.20934 111.19 0.92094 0.93828 0.49891 9.8586 8.4484 19.823 17.665l18.117 16.758 0.21955 4.3027c0.28301 5.5516-2.0098 9.4743-6.2219 10.644-3.5322 0.9809-283.22 0.95209-286.61-0.0292zm163.61-10.791c1.8628-3.738 1.7216-3.7625-20.412-3.5537-19.19 0.18089-20.53 0.27937-20.77 1.5243-0.14078 0.73189 0.32093 1.9681 1.0258 2.7472 1.2155 1.3432 2.2634 1.4064 20.284 1.2222l19.002-0.19402 0.86988-1.7457zm24.337-8.5343c0-1.4157-4.985-8.4376-6.1999-8.7333-0.80234-0.19548-18.67-0.26405-39.707-0.15318l-38.248 0.20204-2.4129 4.0117c-1.3272 2.2064-2.4143 4.2579-2.416 4.5588-0.001 0.30051 20.019 0.54705 44.491 0.54705 24.471 0 44.494-0.19475 44.494-0.43326zm-154.36-35.98c-1.2514-0.76302-2.6463-2.452-3.0999-3.7531-1.0452-2.9979-1.1795-129.49-0.14077-132.23 0.37637-0.9898 1.6782-2.8164 2.893-4.0592l2.2088-2.2596h108.02 108.02l1.9588 2.2791c1.0773 1.2535 2.3542 3.1408 2.8376 4.1941 0.66377 1.4454 0.88698 17.524 0.91175 65.579 0.0366 69.117 0.16855 66.789-3.9888 70.059l-2.0102 1.5813-107.67-0.003c-104.54-0.003-107.74-0.0437-109.95-1.3902zm210.88-70.089v-59.446l-101.2-0.18527-101.2-0.18527v59.816 59.816l101.2-0.18526 101.2-0.18528v-59.446zm187.46 55.726c-3.5013-1.2815-7.9888-5.4621-9.957-9.2762-4.5004-8.7209-0.71844-20.187 8.2696-25.07 3.3189-1.8031 13.833-1.8398 17.102-0.0583 3.1945 1.7398 6.5924 5.2901 8.472 8.8521 2.2103 4.1887 2.2266 12.037 0.0366 16.145-2.0908 3.9162-6.4636 7.9095-10.266 9.3756-3.783 1.4584-9.7198 1.4727-13.653 0.0365zm75.665-0.17433c-3.8608-1.568-7.7708-5.195-9.8523-9.1396-2.1188-4.0151-2.2196-11.961-0.20423-16.072 1.6684-3.4025 5.3733-7.2489 8.5786-8.9065 2.9961-1.5494 10.32-2.1263 14.078-1.1089 4.3521 1.178 8.5601 4.6373 10.944 8.9963 1.7707 3.2382 2.1114 4.6956 2.0976 8.9721-0.022 5.9743-1.5442 9.4916-5.8837 13.57-5.2005 4.8873-13.152 6.3716-19.758 3.6885zm-843.35-23.8c-0.7199-0.87-0.8384-5.84-0.5361-22.46 0.3406-18.71 0.6098-22.46 2.1838-30.45 2.7254-13.843 7.0587-25.349 14.571-38.687 9.437-16.758 26.57-33.985 44.238-44.482 8.776-5.214 23.247-10.977 33.614-13.387 2.6076-0.60613 6.3823-1.509 8.3881-2.006 4.6393-1.1495 33.356-1.716 36.835-0.72649 1.4041 0.39899 5.0146 1.2592 8.0234 1.9107 24.668 5.3416 43.786 15.679 61.327 33.162 19.779 19.713 29.43 37.944 35.345 66.767 1.7727 8.6382 2.4725 49.225 0.87163 50.554-0.77725 0.64479-3.3793 0.85931-8.6632 0.71335l-7.5522-0.2086-0.41357-22.247c-0.41357-22.243-0.70971-25.158-3.7031-36.47-4.7534-17.963-17.794-38.791-31.876-50.911-18.583-15.994-36.782-23.698-62.541-26.475-14.028-1.5126-33.184 1.7177-48.661 8.2057-29.493 12.363-52.816 38.903-60.78 69.163-3.153 11.979-3.3339 13.71-3.813 36.487l-0.46828 22.247-7.7322 0.20569c-6.2242 0.16557-7.9125-0.0146-8.6566-0.90789zm31.799-2.7627c-4.1073-6.4397-5.5179-9.7402-6.426-15.035-4.088-23.84 20.842-43.187 43.235-33.554 1.9202 0.82605 3.8395 1.2866 4.2652 1.0235 0.48578-0.29978 0.77404-4.2409 0.77404-10.569 0-11.199-0.10284-10.976 5.0761-10.976 3.4275 0 4.743 1.4152 4.1362 4.4495-0.47995 2.3988 0.07659 5.7621 0.95369 5.7621 0.28884 0 1.3202-1.7225 2.2915-3.8278 3.5456-7.6859 10.13-12.111 19.822-13.322 5.3496-0.66813 5.8036 0.26769 3.1539 6.5024-3.7393 8.798-11.093 13.99-20.99 14.82l-4.9618 0.41576v3.9059c0 2.1483 0.28738 3.906 0.63896 3.906 0.35084 0 2.5132-0.82903 4.8045-1.8423 17.574-7.7719 37.085 1.4992 42.826 20.349 2.6762 8.7875 0.89585 17.754-5.486 27.628l-2.7108 4.1941h-44.48-44.48l-2.4425-3.8294zm110.71 2.8165c-0.21371-0.55726 1.4764-4.742 3.7559-9.2999 15.361-30.715 39.75-53.875 56.732-53.875 5.6668 0 8.721 1.7619 11.428 6.5928 1.6605 2.9631 1.8196 4.0041 1.7797 11.642-0.0437 8.903-1.3183 14.948-5.2172 24.8-2.6065 6.5862-7.3144 15.95-9.443 18.782l-1.7817 2.3706h-28.432c-23.586 0-28.499-0.17287-28.821-1.0128zm-1.7321-27.859c-5.2295-2.2683-8.0451-6.7454-8.0451-12.793 0-7.0335 4.827-12.53 11.849-13.492 10.651-1.4598 18.936 9.438 14.485 19.052-3.3657 7.2697-11.128 10.339-18.289 7.2331zm20.954-28.989c-2.6302-1.2158-6.9451-5.4025-8.3992-8.1499-1.4166-2.6765-1.5439-10.219-0.21517-12.765 3.224-6.1767 9.1359-10.19 15.031-10.204 4.1686-0.007 10.193 3.1767 12.794 6.7684 4.2542 5.8727 4.4906 12.405 0.65573 18.132-3.3522 5.0065-6.5687 6.7736-12.695 6.974-3.0024 0.0985-6.0105-0.21882-7.1723-0.75559z" stroke-opacity=".94118" stroke="#fff" stroke-width="3.664" fill="none"/>
</svg>
